<svg xmlns="http://www.w3.org/2000/svg" viewBox="0 0 512 512" width="512" height="512">
  <!-- Rounded square background -->
  <rect x="0" y="0" width="512" height="512" rx="100" ry="100" fill="#E76F51"/>
  <!-- Letter "f" centered -->
  <g transform="translate(155,380) scale(0.11,-0.11)">
    <path d="M161 -8Q131 -8 114.5 8.5Q98 25 98 56V395H52Q28 395 15.0 407.5Q2 420 2 442Q2 465 15.0 477.0Q28 489 52 489H134L98 456V490Q98 593 150.0 644.5Q202 696 300 705L334 708Q354 710 366.0 701.5Q378 693 382.0 679.5Q386 666 383.0 652.0Q380 638 370.5 627.5Q361 617 346 616L332 615Q275 611 249.0 586.0Q223 561 223 510V473L207 489H308Q332 489 345.0 477.0Q358 465 358 442Q358 420 345.0 407.5Q332 395 308 395H223V56Q223 -8 161 -8Z" fill="#FFFFFF"/>
  </g>
</svg>
