<svg xmlns="http://www.w3.org/2000/svg" viewBox="0 0 253 92" width="253" height="92">
  <g transform="translate(10.0,67.6) scale(0.0720,-0.0720)">
    <path d="M161 -8Q131 -8 114.5 8.5Q98 25 98 56V395H52Q28 395 15.0 407.5Q2 420 2 442Q2 465 15.0 477.0Q28 489 52 489H134L98 456V490Q98 593 150.0 644.5Q202 696 300 705L334 708Q354 710 366.0 701.5Q378 693 382.0 679.5Q386 666 383.0 652.0Q380 638 370.5 627.5Q361 617 346 616L332 615Q275 611 249.0 586.0Q223 561 223 510V473L207 489H308Q332 489 345.0 477.0Q358 465 358 442Q358 420 345.0 407.5Q332 395 308 395H223V56Q223 -8 161 -8Z" fill="#FFFFFF"/>
  </g>
  <g transform="translate(36.2,67.6) scale(0.0720,-0.0720)">
    <path d="M232 -10Q149 -10 107.0 37.5Q65 85 65 177V650Q65 681 81.0 697.0Q97 713 127 713Q157 713 173.5 697.0Q190 681 190 650V183Q190 137 209.5 115.0Q229 93 265 93Q273 93 280.0 93.5Q287 94 294 95Q308 97 313.0 87.5Q318 78 318 49Q318 24 308.0 10.0Q298 -4 275 -7Q265 -8 254.0 -9.0Q243 -10 232 -10Z" fill="#FFFFFF"/>
  </g>
  <g transform="translate(59.2,67.6) scale(0.0720,-0.0720)">
    <path d="M288 -10Q212 -10 156.0 21.0Q100 52 69.0 109.5Q38 167 38 245Q38 304 55.5 350.5Q73 397 106.0 430.5Q139 464 185.0 481.5Q231 499 288 499Q364 499 420.0 468.0Q476 437 507.0 380.0Q538 323 538 245Q538 186 520.5 139.0Q503 92 470.0 58.5Q437 25 391.0 7.5Q345 -10 288 -10ZM288 85Q325 85 353.0 103.0Q381 121 396.5 156.5Q412 192 412 245Q412 325 378.0 364.5Q344 404 288 404Q251 404 223.0 386.5Q195 369 179.5 333.5Q164 298 164 245Q164 166 198.0 125.5Q232 85 288 85Z" fill="#FFFFFF"/>
  </g>
  <g transform="translate(100.6,67.6) scale(0.0720,-0.0720)">
    <path d="M129 -8Q99 -8 83.0 8.5Q67 25 67 56V434Q67 465 83.0 481.0Q99 497 128 497Q157 497 173.0 481.0Q189 465 189 434V361L178 391Q198 441 240.0 470.0Q282 499 340 499Q399 499 437.0 471.0Q475 443 490 385H476Q496 438 542.0 468.5Q588 499 648 499Q704 499 740.5 477.0Q777 455 795.0 410.5Q813 366 813 298V56Q813 25 796.5 8.5Q780 -8 750 -8Q720 -8 704.0 8.5Q688 25 688 56V293Q688 349 669.5 375.0Q651 401 607 401Q558 401 530.0 366.5Q502 332 502 271V56Q502 25 486.0 8.5Q470 -8 440 -8Q410 -8 393.5 8.5Q377 25 377 56V293Q377 349 358.5 375.0Q340 401 297 401Q248 401 220.0 366.5Q192 332 192 271V56Q192 -8 129 -8Z" fill="#FFFFFF"/>
  </g>
  <g transform="translate(163.8,67.6) scale(0.0720,-0.0720)">
    <path d="M127 -7Q97 -7 81.0 11.0Q65 29 65 61V428Q65 461 81.0 478.5Q97 496 127 496Q157 496 173.5 478.5Q190 461 190 428V61Q190 29 174.0 11.0Q158 -7 127 -7ZM127 589Q92 589 72.5 606.5Q53 624 53 655Q53 687 72.5 704.0Q92 721 127 721Q163 721 182.0 704.0Q201 687 201 655Q201 624 182.0 606.5Q163 589 127 589Z" fill="#FFFFFF"/>
  </g>
  <g transform="translate(182.2,67.6) scale(0.0720,-0.0720)">
    <path d="M232 -10Q149 -10 107.0 37.5Q65 85 65 177V650Q65 681 81.0 697.0Q97 713 127 713Q157 713 173.5 697.0Q190 681 190 650V183Q190 137 209.5 115.0Q229 93 265 93Q273 93 280.0 93.5Q287 94 294 95Q308 97 313.0 87.5Q318 78 318 49Q318 24 308.0 10.0Q298 -4 275 -7Q265 -8 254.0 -9.0Q243 -10 232 -10Z" fill="#FFFFFF"/>
  </g>
  <g transform="translate(205.1,67.6) scale(0.0720,-0.0720)">
    <path d="M189 -188Q167 -188 153.0 -176.5Q139 -165 136.5 -146.0Q134 -127 143 -106L211 45V-7L29 414Q20 436 23.0 455.0Q26 474 41.5 485.5Q57 497 84 497Q107 497 121.0 486.5Q135 476 146 447L281 110H251L389 448Q400 476 415.0 486.5Q430 497 455 497Q477 497 490.0 485.5Q503 474 506.0 455.5Q509 437 499 415L256 -140Q243 -168 228.0 -178.0Q213 -188 189 -188Z" fill="#FFFFFF"/>
  </g>
</svg>
